<?xml version="1.0" encoding="utf-8"?>
<!-- Generator: Adobe Illustrator 24.1.1, SVG Export Plug-In . SVG Version: 6.00 Build 0)  -->
<svg version="1.1" id="Layer_1" xmlns="http://www.w3.org/2000/svg" xmlns:xlink="http://www.w3.org/1999/xlink" x="0px" y="0px"
	 viewBox="0 0 512 512" style="enable-background:new 0 0 512 512;" xml:space="preserve">
<g>
	<path d="M472.3,68.3l-45.8-45.8C412,8.1,392.8,0.1,372.3,0.1c-20.4,0-39.7,8-54.2,22.4l-40.5,40.5c-29.9,29.9-29.9,78.4,0,108.3
		l35.2,35.2L206.4,313.1l-35.2-35.2c-14.4-14.5-33.7-22.4-54.2-22.4c-20.4,0-39.7,8-54.2,22.4l-40.5,40.5
		c-29.9,29.9-29.9,78.4,0,108.3l45.8,45.8c11.9,11.9,45.9,39.4,105.1,39.4c70.6,0,145.4-39,222.4-116
		C555.1,236.4,518.9,115,472.3,68.3z M313.8,99.2l40.5-40.5c5-5,11.5-7.5,18.1-7.5c6.5,0,13.1,2.5,18.1,7.5L418,86.3l-76.6,76.6
		l-27.6-27.6C303.8,125.3,303.8,109.1,313.8,99.2z M58.5,390.6c-10-10-10-26.1,0-36.1L99,314c5-5,11.5-7.5,18.1-7.5
		c6.5,0,13.1,2.5,18.1,7.5l27.6,27.6l-76.6,76.6L58.5,390.6z M359.6,359.7c-78.7,78.7-141.7,101.1-186.3,101.1
		c-34.4,0-57.9-13.4-69-24.5l76.5-76.7l7.6,7.6c5,5,11.5,7.5,18.1,7.5c6.5,0,13.1-2.5,18.1-7.5l142.6-142.6c10-10,10-26.1,0-36.1
		l-7.6-7.6l76.6-76.6C461.7,130,499.1,220.2,359.6,359.7z"/>
</g>
</svg>
